HIERARCHY
ROOT Hips
{
    OFFSET   0.000000   0.000000   0.000000
    CHANNELS 6 Xposition Yposition Zposition Zrotation Xrotation Yrotation
    JOINT Chest
    {
        OFFSET   0.000000   8.007230   0.000000
        CHANNELS 3 Zrotation Xrotation Yrotation
        JOINT Chest2
        {
            OFFSET   0.000000  22.077100   0.000000
            CHANNELS 3 Zrotation Xrotation Yrotation
            JOINT Neck
            {
                OFFSET   0.000000  23.254800  -0.000021
                CHANNELS 3 Zrotation Xrotation Yrotation
                JOINT Head
                {
                    OFFSET   0.000000  14.370000   1.956610
                    CHANNELS 3 Zrotation Xrotation Yrotation
                    End Site
                    {
                        OFFSET   0.000000  19.566000   0.000000
                    }
                }
            }
            JOINT LeftCollar
            {
                OFFSET   3.911900  19.017000  -0.467063
                CHANNELS 3 Zrotation Xrotation Yrotation
                JOINT LeftShoulder
                {
                    OFFSET  10.383700   0.000000   0.000000
                    CHANNELS 3 Zrotation Xrotation Yrotation
                    JOINT LeftElbow
                    {
                        OFFSET  26.662100   0.001529   0.000325
                        CHANNELS 3 Zrotation Xrotation Yrotation
                        JOINT LeftWrist
                        {
                            OFFSET  28.869000  -0.000011  -0.000096
                            CHANNELS 3 Zrotation Xrotation Yrotation
                            JOINT LeftFinger0
                            {
                                OFFSET   2.044650  -2.323460   3.252850
                                CHANNELS 3 Zrotation Xrotation Yrotation
                                JOINT LeftFinger01
                                {
                                    OFFSET   3.088130   0.000000   0.000000
                                    CHANNELS 3 Zrotation Xrotation Yrotation
                                    JOINT LeftFinger02
                                    {
                                        OFFSET   2.639460   0.000000   0.000000
                                        CHANNELS 3 Zrotation Xrotation Yrotation
                                        End Site
                                        {
                                            OFFSET   2.582190   0.000000   0.000000
                                        }
                                    }
                                }
                            }
                            JOINT LeftFinger1
                            {
                                OFFSET   8.364480   0.000000   3.252850
                                CHANNELS 3 Zrotation Xrotation Yrotation
                                JOINT LeftFinger11
                                {
                                    OFFSET   4.646930   0.000000   0.000000
                                    CHANNELS 3 Zrotation Xrotation Yrotation
                                    JOINT LeftFinger12
                                    {
                                        OFFSET   2.323460   0.000000   0.000000
                                        CHANNELS 3 Zrotation Xrotation Yrotation
                                        End Site
                                        {
                                            OFFSET   2.273050   0.000000   0.000000
                                        }
                                    }
                                }
                            }
                            JOINT LeftFinger2
                            {
                                OFFSET   8.364480   0.000016   1.078090
                                CHANNELS 3 Zrotation Xrotation Yrotation
                                JOINT LeftFinger21
                                {
                                    OFFSET   5.111620   0.000000   0.000000
                                    CHANNELS 3 Zrotation Xrotation Yrotation
                                    JOINT LeftFinger22
                                    {
                                        OFFSET   2.788160   0.000017   0.000000
                                        CHANNELS 3 Zrotation Xrotation Yrotation
                                        End Site
                                        {
                                            OFFSET   2.727660   0.000000   0.000000
                                        }
                                    }
                                }
                            }
                            JOINT LeftFinger3
                            {
                                OFFSET   7.899780   0.000015  -1.078090
                                CHANNELS 3 Zrotation Xrotation Yrotation
                                JOINT LeftFinger31
                                {
                                    OFFSET   4.646920   0.000000   0.000000
                                    CHANNELS 3 Zrotation Xrotation Yrotation
                                    JOINT LeftFinger32
                                    {
                                        OFFSET   2.323470   0.000000   0.000000
                                        CHANNELS 3 Zrotation Xrotation Yrotation
                                        End Site
                                        {
                                            OFFSET   2.273050   0.000000   0.000000
                                        }
                                    }
                                }
                            }
                            JOINT LeftFinger4
                            {
                                OFFSET   7.435090   0.000000  -3.252850
                                CHANNELS 3 Zrotation Xrotation Yrotation
                                JOINT LeftFinger41
                                {
                                    OFFSET   3.717550   0.000000   0.000000
                                    CHANNELS 3 Zrotation Xrotation Yrotation
                                    JOINT LeftFinger42
                                    {
                                        OFFSET   1.858760   0.000000   0.000000
                                        CHANNELS 3 Zrotation Xrotation Yrotation
                                        End Site
                                        {
                                            OFFSET   1.818440   0.000000   0.000000
                                        }
                                    }
                                }
                            }
                        }
                    }
                }
            }
            JOINT RightCollar
            {
                OFFSET  -3.911900  19.017000  -0.467062
                CHANNELS 3 Zrotation Xrotation Yrotation
                JOINT RightShoulder
                {
                    OFFSET -10.383700   0.000015   0.000000
                    CHANNELS 3 Zrotation Xrotation Yrotation
                    JOINT RightElbow
                    {
                        OFFSET -26.662100   0.001341   0.000385
                        CHANNELS 3 Zrotation Xrotation Yrotation
                        JOINT RightWrist
                        {
                            OFFSET -28.869000   0.000025  -0.000080
                            CHANNELS 3 Zrotation Xrotation Yrotation
                            JOINT RightFinger0
                            {
                                OFFSET  -2.044650  -2.323490   3.252850
                                CHANNELS 3 Zrotation Xrotation Yrotation
                                JOINT RightFinger01
                                {
                                    OFFSET  -3.088130   0.000000   0.000000
                                    CHANNELS 3 Zrotation Xrotation Yrotation
                                    JOINT RightFinger02
                                    {
                                        OFFSET  -2.639460   0.000000   0.000000
                                        CHANNELS 3 Zrotation Xrotation Yrotation
                                        End Site
                                        {
                                            OFFSET  -2.582190   0.000000   0.000000
                                        }
                                    }
                                }
                            }
                            JOINT RightFinger1
                            {
                                OFFSET  -8.364480   0.000000   3.252850
                                CHANNELS 3 Zrotation Xrotation Yrotation
                                JOINT RightFinger11
                                {
                                    OFFSET  -4.646930   0.000000   0.000000
                                    CHANNELS 3 Zrotation Xrotation Yrotation
                                    JOINT RightFinger12
                                    {
                                        OFFSET  -2.323470   0.000000   0.000000
                                        CHANNELS 3 Zrotation Xrotation Yrotation
                                        End Site
                                        {
                                            OFFSET  -2.273050   0.000000   0.000000
                                        }
                                    }
                                }
                            }
                            JOINT RightFinger2
                            {
                                OFFSET  -8.364480   0.000000   1.078090
                                CHANNELS 3 Zrotation Xrotation Yrotation
                                JOINT RightFinger21
                                {
                                    OFFSET  -5.111610   0.000000   0.000000
                                    CHANNELS 3 Zrotation Xrotation Yrotation
                                    JOINT RightFinger22
                                    {
                                        OFFSET  -2.788160   0.000000   0.000000
                                        CHANNELS 3 Zrotation Xrotation Yrotation
                                        End Site
                                        {
                                            OFFSET  -2.727660   0.000000   0.000000
                                        }
                                    }
                                }
                            }
                            JOINT RightFinger3
                            {
                                OFFSET  -7.899780   0.000000  -1.078090
                                CHANNELS 3 Zrotation Xrotation Yrotation
                                JOINT RightFinger31
                                {
                                    OFFSET  -4.646920   0.000000   0.000000
                                    CHANNELS 3 Zrotation Xrotation Yrotation
                                    JOINT RightFinger32
                                    {
                                        OFFSET  -2.323470   0.000000   0.000000
                                        CHANNELS 3 Zrotation Xrotation Yrotation
                                        End Site
                                        {
                                            OFFSET  -2.273050   0.000000   0.000000
                                        }
                                    }
                                }
                            }
                            JOINT RightFinger4
                            {
                                OFFSET  -7.435090   0.000000  -3.252850
                                CHANNELS 3 Zrotation Xrotation Yrotation
                                JOINT RightFinger41
                                {
                                    OFFSET  -3.717550   0.000000   0.000000
                                    CHANNELS 3 Zrotation Xrotation Yrotation
                                    JOINT RightFinger42
                                    {
                                        OFFSET  -1.858770   0.000000   0.000000
                                        CHANNELS 3 Zrotation Xrotation Yrotation
                                        End Site
                                        {
                                            OFFSET  -1.818440   0.000000   0.000000
                                        }
                                    }
                                }
                            }
                        }
                    }
                }
            }
        }
    }
    JOINT LeftHip
    {
        OFFSET   9.783010   0.000000   0.000000
        CHANNELS 3 Zrotation Xrotation Yrotation
        JOINT LeftKnee
        {
            OFFSET   0.000070 -41.789100   0.000028
            CHANNELS 3 Zrotation Xrotation Yrotation
            JOINT LeftAnkle
            {
                OFFSET   0.000087 -41.133200  -0.000100
                CHANNELS 3 Zrotation Xrotation Yrotation
                JOINT LeftToe
                {
                    OFFSET   0.000000  -6.358960  14.674500
                    CHANNELS 3 Zrotation Xrotation Yrotation
                    End Site
                    {
                        OFFSET   0.000000   0.000000   3.913200
                    }
                }
            }
        }
    }
    JOINT RightHip
    {
        OFFSET  -9.783020   0.000000   0.000000
        CHANNELS 3 Zrotation Xrotation Yrotation
        JOINT RightKnee
        {
            OFFSET   0.000044 -41.789100  -0.000870
            CHANNELS 3 Zrotation Xrotation Yrotation
            JOINT RightAnkle
            {
                OFFSET  -0.000090 -41.133200  -0.000245
                CHANNELS 3 Zrotation Xrotation Yrotation
                JOINT RightToe
                {
                    OFFSET   0.000000  -6.358960  14.674500
                    CHANNELS 3 Zrotation Xrotation Yrotation
                    End Site
                    {
                        OFFSET   0.000000   0.000000   3.913200
                    }
                }
            }
        }
    }
}
MOTION
Frames: 6
Frame Time:   0.016667
  0.482974  89.413000   1.003790  -1.349550  -1.511230   2.028330   1.063470   2.107730  -0.543916   2.149100   4.204910  -1.128050  -0.524048   1.158680   0.020793  -0.864700   2.349430  -1.362640  -3.408590   3.229980   8.156630 -79.528000   5.608390   1.776700  -0.884070   2.782080 -14.557700   7.122360  -0.993704  -2.800380  40.406500  32.537000 -50.026000 -30.933900  -0.002023  -0.001135 -10.466900   0.012132  -0.001440 -25.306600  -0.514217   1.079000 -20.709500   0.000868  -0.002974 -14.496600   0.000000  -0.001842 -27.760000  -3.255800   6.169390 -31.555700  -0.012388   0.002228 -21.016100   0.006337   0.001566 -23.912800  -2.834440   6.374300 -24.070900  -0.000833  -0.004211 -16.031200  -0.000643  -0.002849 -23.094300  -3.887120   9.031070 -35.102300  -0.000705  -0.003247 -23.378100   0.002456  -0.001616   8.078100   4.916150   4.515480  70.961300  -8.772110  -1.348480   4.422820  -7.343320  12.664900 -16.511400   3.943200   2.805910 -49.130600  42.645700  84.739200  23.682000   0.006475  -0.002752   6.838850  -0.001850  -0.009806  27.275500   0.370005   0.717606  22.318200   0.003997  -0.003072  15.622700   0.001141  -0.006488  27.717100  -0.110272  -0.209949  30.281500   0.003040  -0.004264  20.167400   0.002669  -0.009498  28.231300  -0.736623  -1.371800  33.706800  -0.000062   0.001047  22.448800  -0.000080  -0.005272  32.949200  -0.847009  -1.306540  49.438300   0.001832  -0.006149  32.925900  -0.007242  -0.007689   4.744830   4.055030  -3.234110  -0.427614   0.589274  14.944900  -2.971520  -3.006240   1.437880  -0.000000   0.000000  -0.000000  -0.924115   4.825220  -6.510830   1.203700   0.241617  -9.260380   0.399598  -2.813120   0.467552  -0.000000   0.000000   0.000000
  0.483010  89.413000   1.003810  -1.348910  -1.524500   2.033930   1.063460   2.115180  -0.540097   2.149010   4.219870  -1.120560  -0.525097   1.164710   0.020782  -0.865929   2.361470  -1.337600  -3.414910   3.229940   8.156590 -79.531500   5.625430   1.770490  -0.886759   2.771310 -14.559600   7.129720  -1.014660  -2.800400  40.415400  32.556400 -50.047900 -30.933900  -0.002025  -0.001135 -10.466900   0.012139  -0.001458 -25.317600  -0.514455   1.070070 -20.718600   0.000865  -0.002975 -14.502700   0.000000  -0.001844 -27.759100  -3.261170   6.174810 -31.555900  -0.012400   0.002235 -21.016200   0.006338   0.001571 -23.905800  -2.838490   6.380010 -24.064200  -0.000837  -0.004215 -16.026700  -0.000646  -0.002853 -23.088700  -3.887090   9.034440 -35.094000  -0.000710  -0.003250 -23.372600   0.002458  -0.001619   8.078360   4.912020   4.515450  70.963200  -8.750750  -1.341070   4.425370  -7.353530  12.665200 -16.521100   3.937380   2.806480 -49.135200  42.647800  84.760000  23.682200   0.006479  -0.002751   6.839050  -0.001845  -0.009791  27.284800   0.372938   0.723007  22.325800   0.003994  -0.003062  15.628000   0.001139  -0.006487  27.717100  -0.106359  -0.202477  30.298200   0.003038  -0.004255  20.178500   0.002664  -0.009488  28.231500  -0.733683  -1.366250  33.717600  -0.000062   0.001059  22.456000  -0.000084  -0.005262  32.955900  -0.843738  -1.301170  49.448300   0.001822  -0.006137  32.932500  -0.007237  -0.007684   4.745390   4.065050  -3.234070  -0.427593   0.589944  14.944900  -2.971900  -3.006720   1.431990  -0.000000   0.000000   0.000000  -0.921647   4.848600  -6.510880   1.204480   0.234400  -9.252030   0.398484  -2.809730   0.452027   0.000000   0.000000   0.000000
  0.483046  89.413000   1.003830  -1.347750  -1.548380   2.044130   1.063390   2.128350  -0.533217   2.148770   4.246330  -1.107050  -0.527625   1.176790   0.020758  -0.869227   2.385710  -1.286450  -3.424610   3.229870   8.156540 -79.537900   5.655390   1.757670  -0.889214   2.760480 -14.566500   7.137080  -1.035620  -2.800430  40.427800  32.581700 -50.080200 -30.933900  -0.002038  -0.001139 -10.466900   0.012163  -0.001483 -25.331800  -0.514788   1.061130 -20.730000   0.000857  -0.002977 -14.511000   0.000000  -0.001847 -27.758000  -3.266540   6.180230 -31.557400  -0.012433   0.002252 -21.017200   0.006342   0.001582 -23.898800  -2.842540   6.385730 -24.057400  -0.000848  -0.004226 -16.022200  -0.000653  -0.002862 -23.083100  -3.887050   9.037810 -35.085700  -0.000724  -0.003257 -23.367000   0.002464  -0.001625   8.078960   4.903780   4.515390  70.966200  -8.709180  -1.329470   4.429860  -7.372270  12.665700 -16.530900   3.927740   2.810550 -49.139800  42.651000  84.792000  23.682500   0.006488  -0.002751   6.839260  -0.001841  -0.009762  27.299600   0.379652   0.735549  22.338000   0.003985  -0.003038  15.636600   0.001134  -0.006482  27.717200  -0.098388  -0.187271  30.323100   0.003031  -0.004230  20.195100   0.002653  -0.009462  28.231900  -0.726593  -1.352910  33.735500  -0.000066   0.001088  22.467900  -0.000095  -0.005236  32.966200  -0.835746  -1.288350  49.463500   0.001798  -0.006108  32.942700  -0.007227  -0.007671   4.746400   4.083800  -3.234010  -0.427541   0.591756  14.944900  -2.972410  -3.007760   1.425230  -0.000000   0.000000   0.000000  -0.919180   4.871980  -6.510930   1.205270   0.227181  -9.243630   0.396977  -2.806340   0.428426   0.000000   0.000000   0.000000
  0.481860  89.413000   1.003770  -1.346610  -1.571210   2.053940   1.063240   2.140710  -0.526519   2.148380   4.271180  -1.093880  -0.531355   1.189110   0.020727  -0.874478   2.410700  -1.226750  -3.430530   3.229830   8.156550 -79.543900   5.681630   1.742010  -0.890877   2.763970 -14.579400   7.131330  -1.033560  -2.808650  40.432500  32.586300 -50.100000 -30.933900  -0.002064  -0.001157 -10.466800   0.012208  -0.001488 -25.334800  -0.514928   1.068350 -20.732200   0.000846  -0.002983 -14.513400  -0.000025  -0.001852 -27.759400  -3.259500   6.166240 -31.572400  -0.012484   0.002277 -21.027200   0.006347   0.001600 -23.904700  -2.836780   6.371150 -24.062600  -0.000866  -0.004244 -16.025700  -0.000664  -0.002876 -23.091400  -3.878370   9.014470 -35.095800  -0.000745  -0.003266 -23.373800   0.002473  -0.001635   8.080000   4.895040   4.512960  70.966700  -8.660830  -1.320160   4.434930  -7.392850  12.669700 -16.525700   3.918240   2.823280 -49.134200  42.652500  84.811400  23.681800   0.006502  -0.002766   6.839210  -0.001847  -0.009733  27.312700   0.389330   0.753883  22.348800   0.003971  -0.003001  15.644200   0.001126  -0.006474  27.717500  -0.088799  -0.169001  30.339500   0.003019  -0.004191  20.206100   0.002636  -0.009420  28.232600  -0.715716  -1.332540  33.753400  -0.000073   0.001133  22.479800  -0.000114  -0.005194  32.973900  -0.823364  -1.268860  49.474700   0.001762  -0.006061  32.950200  -0.007213  -0.007653   4.746830   4.102910  -3.233950  -0.427401   0.595666  14.940800  -2.972780  -3.009480   1.424660  -0.000000   0.000000   0.000000  -0.919648   4.854640  -6.511320   1.204380   0.301523  -9.243620   0.400996  -2.836390   0.414072  -0.000000   0.000000   0.000000
  0.479794  89.412900   1.003680  -1.345330  -1.596160   2.065100   1.063080   2.153480  -0.519435   2.147940   4.296860  -1.079950  -0.535876   1.207040   0.020691  -0.881296   2.447080  -1.153830  -3.435650   3.229810   8.156630 -79.551500   5.711720   1.723770  -0.895435   2.771280 -14.596600   7.121320  -1.026650  -2.824380  40.433800  32.584900 -50.109400 -30.933900  -0.002097  -0.001180 -10.466800   0.012268  -0.001495 -25.335900  -0.514974   1.075560 -20.733100   0.000831  -0.002990 -14.514500  -0.000062  -0.001859 -27.761600  -3.248980   6.145230 -31.595100  -0.012549   0.002309 -21.042300   0.006354   0.001623 -23.914100  -2.828200   6.349260 -24.071000  -0.000890  -0.004266 -16.031300  -0.000680  -0.002895 -23.105200  -3.865210   8.978560 -35.113200  -0.000772  -0.003279 -23.385400   0.002485  -0.001647   8.081470   4.883260   4.510520  70.964600  -8.610420  -1.314960   4.439990  -7.411210  12.679800 -16.515300   3.912550   2.843330 -49.130000  42.653800  84.828000  23.677700   0.006519  -0.002786   6.838860  -0.001853  -0.009698  27.320100   0.400249   0.774735  22.355000   0.003954  -0.002955  15.648500   0.001115  -0.006463  27.717700  -0.077810  -0.148077  30.347700   0.003004  -0.004141  20.211500   0.002614  -0.009366  28.233300  -0.703414  -1.309550  33.764200  -0.000082   0.001190  22.486900  -0.000137  -0.005140  32.978300  -0.809245  -1.246950  49.480700   0.001715  -0.006003  32.954100  -0.007194  -0.007629   4.747460   4.124880  -3.233960  -0.427261   0.598442  14.934000  -2.973050  -3.010650   1.424080   0.000000   0.000000   0.000000  -0.919995   4.837290  -6.513140   1.203500   0.375864  -9.243690   0.405162  -2.866440   0.402966  -0.000000   0.000000   0.000000
  0.477863  89.412900   1.003610  -1.343950  -1.622170   2.077790   1.062940   2.165230  -0.512255   2.147530   4.320480  -1.065790  -0.540384   1.234600   0.020644  -0.889156   2.502880  -1.069620  -3.440340   3.229960   8.158470 -79.560700   5.749480   1.705170  -0.902965   2.778250 -14.615600   7.110110  -1.009310  -2.842940  40.428700  32.577500 -50.101600 -30.933900  -0.002128  -0.001193 -10.466800   0.012336  -0.001519 -25.338100  -0.512589   1.074950 -20.735000   0.000814  -0.002998 -14.516000  -0.000082  -0.001868 -27.763100  -3.242070   6.131170 -31.616600  -0.012625   0.002346 -21.056600   0.006363   0.001649 -23.921900  -2.822660   6.334600 -24.078100  -0.000917  -0.004293 -16.036000  -0.000698  -0.002917 -23.119200  -3.856010   8.951580 -35.131700  -0.000805  -0.003294 -23.397700   0.002499  -0.001662   8.083050   4.867850   4.511550  70.960300  -8.570070  -1.316180   4.440160  -7.420250  12.697400 -16.498800   3.913060   2.867700 -49.133100  42.655200  84.835900  23.667700   0.006533  -0.002793   6.834550  -0.001851  -0.009658  27.318700   0.408592   0.790892  22.353900   0.003932  -0.002899  15.647800   0.001101  -0.006450  27.717800  -0.066829  -0.127191  30.339700   0.002985  -0.004082  20.206200   0.002585  -0.009303  28.233800  -0.693118  -1.290380  33.762200  -0.000092   0.001256  22.485600  -0.000166  -0.005078  32.970300  -0.797205  -1.228830  49.468200   0.001656  -0.005937  32.945800  -0.007170  -0.007598   4.748880   4.149740  -3.234110  -0.427128   0.595507  14.927700  -2.972860  -3.007760   1.420020  -0.000000   0.000000  -0.000000  -0.915358   4.876530  -6.517500   1.205310   0.337232  -9.244350   0.398164  -2.848060   0.396399  -0.000000   0.000000   0.000000
